# xmcd
#
# Track frame offsets: 
#        150
#        9580
#        21107
#        34065
#        43397
#        53117
#        62957
#        72425
#        85515
#        95535
#        106565
#        115810
#        128355
#        136847
#        145847
#        155845
#        166162
#        173757
#        185472
#        196265
#
# Disc length: 2873 seconds
#
# Revision: 0
# Processed by: cddbd v1.5.1PL2 Copyright (c) Steve Scherf et al.
# Submitted via: ExactAudioCopy v0.95b4
#
DISCID=070b3714
DTITLE=Various Artist - Red Hot Rockabilly [CD2]
DYEAR=1991
DGENRE=Rockabilly
TTITLE0=Roy Orbison - Rockhouse
TTITLE1=Gene Vincent - Pink Thunderbird
TTITLE2=Warren Smith - Rock 'n' Roll Baby
TTITLE3=Billy Riley - Flyin' Saucers Rock 'n' Roll
TTITLE4=Sonny Burgess - Red Headed Woman
TTITLE5=Carl Perkins - Everybody's Trying to be My Baby
TTITLE6=Roy Orbison - You're My Baby
TTITLE7=Jerry Lee Lewis - Whole Lotta Shakin' Goin' On
TTITLE8=Gene Vincent - Cruisin'
TTITLE9=Johnny Cash - Big River
TTITLE10=Bob Luman - Red Hot
TTITLE11=Carl Perkins - Put Your Cat Clothes On
TTITLE12=Jerry Lee Lewis - Great Balls of Fire
TTITLE13=Dennis Herrold - Make with the Lovin'
TTITLE14=Wanda Jackson - Fujiyama Mama
TTITLE15=Ed Bruce - Rock Boppin' Baby
TTITLE16=Johnny Cash - Guess Things Happen That Way
TTITLE17=Carl Perkins - Right String But the Wrong Yo Yo
TTITLE18=Jerry Lee Lewis - Mean Woman Blues
TTITLE19=Gene Vincent - Dance to the Bop
EXTD=
EXTT0=
EXTT1=
EXTT2=
EXTT3=
EXTT4=
EXTT5=
EXTT6=
EXTT7=
EXTT8=
EXTT9=
EXTT10=
EXTT11=
EXTT12=
EXTT13=
EXTT14=
EXTT15=
EXTT16=
EXTT17=
EXTT18=
EXTT19=
PLAYORDER=
